<?xml version="1.0" encoding="UTF-8"?>
<!DOCTYPE svg PUBLIC "-//W3C//DTD SVG 1.1//EN" "http://www.w3.org/Graphics/SVG/1.1/DTD/svg11.dtd">
<!-- Creator: CorelDRAW X6 -->
<svg xmlns="http://www.w3.org/2000/svg" xml:space="preserve" width="210mm" height="75mm" version="1.1" style="shape-rendering:geometricPrecision; text-rendering:geometricPrecision; image-rendering:optimizeQuality; fill-rule:evenodd; clip-rule:evenodd"
viewBox="0 0 21000 7500"
 xmlns:xlink="http://www.w3.org/1999/xlink">
 <defs>
  <style type="text/css">
   <![CDATA[
    .fil0 {fill:#FEFEFE;fill-rule:nonzero}
   ]]>
  </style>
 </defs>
 <g id="Warstwa_x0020_1">
  <metadata id="CorelCorpID_0Corel-Layer"/>
  <path class="fil0" d="M1338 3476l119 0c256,0 427,-28 513,-83 85,-56 128,-154 128,-295 0,-151 -46,-258 -137,-320 -91,-62 -259,-93 -503,-93l-119 0 0 791zm-28 378l0 1276 -433 0 0 -2841 698 0c207,0 360,11 458,34 97,23 183,60 256,112 89,66 159,155 210,266 50,112 76,235 76,370 0,135 -25,259 -76,373 -51,114 -121,203 -210,268 -73,52 -158,89 -256,111 -98,22 -250,33 -458,33l-91 0 -174 0zm4113 -139c0,-144 -26,-280 -79,-409 -52,-129 -128,-244 -226,-345 -96,-100 -207,-176 -332,-230 -127,-54 -260,-81 -399,-81 -140,0 -273,26 -399,79 -126,53 -238,130 -336,231 -98,99 -174,214 -225,343 -52,129 -77,266 -77,411 0,144 26,279 77,407 52,128 127,242 225,343 98,101 210,178 336,231 125,53 259,79 400,79 138,0 270,-26 395,-79 125,-53 237,-130 336,-231 98,-101 174,-215 226,-344 52,-129 79,-264 79,-407zm481 0c0,202 -38,393 -113,572 -76,180 -186,340 -331,481 -146,141 -311,249 -495,324 -183,75 -376,113 -578,113 -205,0 -399,-38 -585,-113 -185,-76 -349,-183 -491,-323 -145,-141 -255,-301 -330,-479 -75,-178 -113,-370 -113,-574 0,-203 38,-395 113,-574 75,-180 185,-341 330,-483 145,-141 309,-248 493,-322 183,-74 378,-111 584,-111 204,0 397,37 581,111 183,74 347,181 491,322 145,144 255,306 331,486 76,181 113,371 113,572zm2103 -40l1124 0c0,19 1,46 2,81 4,92 6,154 6,186 0,399 -115,710 -343,931 -229,221 -552,332 -968,332 -233,0 -440,-34 -623,-103 -182,-69 -342,-172 -479,-311 -134,-137 -238,-298 -309,-483 -72,-185 -108,-383 -108,-593 0,-215 36,-413 109,-594 74,-181 181,-340 325,-479 138,-136 301,-239 487,-311 186,-71 385,-107 597,-107 223,0 424,41 600,123 176,81 334,206 472,374l-336 254c-96,-111 -204,-194 -325,-248 -120,-54 -254,-81 -403,-81 -308,0 -559,99 -754,296 -195,197 -292,454 -292,769 0,321 97,581 292,781 195,200 447,300 758,300 264,0 472,-62 623,-184 152,-123 227,-290 227,-503l0 -40 -683 0 0 -389zm4049 40c0,-144 -26,-280 -79,-409 -52,-129 -128,-244 -226,-345 -96,-100 -207,-176 -332,-230 -127,-54 -260,-81 -399,-81 -140,0 -273,26 -399,79 -126,53 -238,130 -336,231 -98,99 -174,214 -225,343 -52,129 -77,266 -77,411 0,144 26,279 77,407 52,128 127,242 225,343 98,101 210,178 336,231 125,53 259,79 400,79 138,0 270,-26 395,-79 125,-53 237,-130 336,-231 98,-101 174,-215 226,-344 52,-129 79,-264 79,-407zm481 0c0,202 -38,393 -113,572 -76,180 -186,340 -331,481 -146,141 -311,249 -495,324 -183,75 -376,113 -578,113 -205,0 -399,-38 -585,-113 -185,-76 -349,-183 -491,-323 -145,-141 -255,-301 -330,-479 -75,-178 -113,-370 -113,-574 0,-203 38,-395 113,-574 75,-180 185,-341 330,-483 145,-141 309,-248 493,-322 183,-74 378,-111 584,-111 204,0 397,37 581,111 183,74 347,181 491,322 145,144 255,306 331,486 76,181 113,371 113,572zm990 997l389 0c213,0 374,-14 480,-42 107,-28 200,-77 279,-144 107,-92 188,-206 242,-343 54,-136 81,-295 81,-476 0,-181 -27,-340 -81,-476 -54,-137 -134,-251 -242,-343 -80,-67 -176,-115 -288,-144 -112,-28 -287,-42 -526,-42l-167 0 -167 0 0 2011zm-461 417l0 -2841 622 0c405,0 690,21 856,61 165,41 309,109 434,205 164,126 289,287 374,483 85,197 127,421 127,674 0,252 -42,476 -127,670 -85,195 -209,356 -374,483 -125,95 -266,164 -425,205 -158,40 -405,61 -740,61l-125 0 -622 0zm2941 0l0 -2841 1586 0 0 393 -1125 0 0 711 1125 0 0 405 -1125 0 0 918 1125 0 0 413 -1586 0zm1184 993l1527 -2480 -815 -1354 485 0 409 695c22,36 63,111 122,225l29 56c21,-40 44,-83 69,-128 25,-46 54,-96 87,-150l1067 -1725 464 0 -1455 2374 893 1494 -510 0 -475 -805 -8 -14c-52,-97 -99,-188 -143,-274 -22,44 -46,90 -72,137 -26,47 -54,95 -83,144l-1102 1804 -489 0z"/>
 </g>
</svg>
